<svg xmlns="http://www.w3.org/2000/svg" xmlns:xlink="http://www.w3.org/1999/xlink" width="235" height="496.366" viewBox="0 0 235 496.366">
  <defs>
    <filter id="Rectangle_5" x="0" y="0.366" width="235" height="496" filterUnits="userSpaceOnUse">
      <feOffset dx="-5" dy="10" input="SourceAlpha"/>
      <feGaussianBlur stdDeviation="2" result="blur"/>
      <feFlood flood-opacity="0.259"/>
      <feComposite operator="in" in2="blur"/>
      <feComposite in="SourceGraphic"/>
    </filter>
    <linearGradient id="linear-gradient" x1="0.5" y1="1" x2="0.5" gradientUnits="objectBoundingBox">
      <stop offset="0" stop-color="#00a8ff"/>
      <stop offset="1" stop-color="#a442fb"/>
    </linearGradient>
    <linearGradient id="linear-gradient-2" x1="0.749" y1="0.066" x2="0.251" y2="0.928" gradientUnits="objectBoundingBox">
      <stop offset="0.037" stop-color="#777"/>
      <stop offset="0.101" stop-color="#7e7e7e"/>
      <stop offset="0.191" stop-color="#909090"/>
      <stop offset="0.298" stop-color="#afafaf"/>
      <stop offset="0.416" stop-color="#d9d9d9"/>
      <stop offset="0.507" stop-color="#fff"/>
      <stop offset="0.573" stop-color="#ccc" stop-opacity="0.973"/>
      <stop offset="0.66" stop-color="#8f8f8f" stop-opacity="0.937"/>
      <stop offset="0.744" stop-color="#5c5c5c" stop-opacity="0.906"/>
      <stop offset="0.822" stop-color="#343434" stop-opacity="0.871"/>
      <stop offset="0.893" stop-color="#171717" stop-opacity="0.843"/>
      <stop offset="0.955" stop-color="#060606" stop-opacity="0.82"/>
      <stop offset="1" stop-opacity="0.8"/>
    </linearGradient>
    <linearGradient id="linear-gradient-3" x1="-0.196" y1="26.958" x2="-0.71" y2="27.85" gradientUnits="objectBoundingBox">
      <stop offset="0.037" stop-color="#777"/>
      <stop offset="0.101" stop-color="#7e7e7e"/>
      <stop offset="0.191" stop-color="#909090"/>
      <stop offset="0.298" stop-color="#afafaf"/>
      <stop offset="0.416" stop-color="#d9d9d9"/>
      <stop offset="0.507" stop-color="#fff"/>
      <stop offset="0.551" stop-color="#dedede" stop-opacity="0.957"/>
      <stop offset="0.645" stop-color="#9d9d9d" stop-opacity="0.859"/>
      <stop offset="0.735" stop-color="#666" stop-opacity="0.769"/>
      <stop offset="0.818" stop-color="#3c3c3c" stop-opacity="0.686"/>
      <stop offset="0.892" stop-color="#1d1d1d" stop-opacity="0.608"/>
      <stop offset="0.955" stop-color="#0b0b0b" stop-opacity="0.545"/>
      <stop offset="1" stop-color="#040404" stop-opacity="0.502"/>
      <stop offset="1" stop-opacity="0.6"/>
    </linearGradient>
    <linearGradient id="linear-gradient-4" x1="16.494" y1="-14.685" x2="17.563" y2="-14.685" gradientUnits="objectBoundingBox">
      <stop offset="0" stop-color="#fff" stop-opacity="0.902"/>
      <stop offset="0.062" stop-color="#cce0f4"/>
      <stop offset="0.137" stop-color="#c3daf0" stop-opacity="0.898"/>
      <stop offset="0.261" stop-color="#a9c9e4" stop-opacity="0.733"/>
      <stop offset="0.419" stop-color="#80aed1" stop-opacity="0.522"/>
      <stop offset="0.606" stop-color="#4689b7" stop-opacity="0.271"/>
    </linearGradient>
    <linearGradient id="linear-gradient-5" x1="0.752" y1="0.064" x2="0.248" y2="0.938" xlink:href="#linear-gradient-2"/>
    <linearGradient id="linear-gradient-6" x1="-1.372" y1="43.691" x2="-1.886" y2="44.574" xlink:href="#linear-gradient-3"/>
    <linearGradient id="linear-gradient-7" x1="27.277" y1="-23.128" x2="28.342" y2="-23.128" xlink:href="#linear-gradient-4"/>
  </defs>
  <g id="Group_25" data-name="Group 25" transform="translate(797 -96.634)">
    <g id="Group_12" data-name="Group 12" transform="translate(-208 -69)">
      <g transform="matrix(1, 0, 0, 1, -589, 165.63)" filter="url(#Rectangle_5)">
        <g id="Rectangle_5-2" data-name="Rectangle 5" transform="translate(11 0.37)" fill="#fff" stroke="#707070" stroke-width="1">
          <rect width="223" height="480" rx="30" stroke="none"/>
          <rect x="0.5" y="0.5" width="222" height="479" rx="29.5" fill="none"/>
        </g>
      </g>
      <g id="Group_11" data-name="Group 11" transform="translate(285.5 -151)">
        <g id="Group_2" data-name="Group 2" transform="translate(-863 316.634)">
          <path id="Path_1" data-name="Path 1" d="M781.555,584.193A27.06,27.06,0,0,1,754.5,557.138V131.555A27.06,27.06,0,0,1,781.555,104.5H949.033a27.06,27.06,0,0,1,27.055,27.055V557.138a27.06,27.06,0,0,1-27.055,27.055Z" transform="translate(-754.223 -104.223)"/>
          <path id="Path_2" data-name="Path 2" d="M948.809,104.553a26.8,26.8,0,0,1,26.779,26.779V556.914a26.8,26.8,0,0,1-26.779,26.779H781.332a26.8,26.8,0,0,1-26.779-26.779V131.332a26.8,26.8,0,0,1,26.779-26.779H948.809m0-.553H781.332A27.32,27.32,0,0,0,754,131.332V556.914a27.32,27.32,0,0,0,27.332,27.332H948.81a27.32,27.32,0,0,0,27.332-27.332V131.332A27.285,27.285,0,0,0,948.809,104Z" transform="translate(-754 -104)"/>
        </g>
        <g id="Group_3" data-name="Group 3" transform="translate(-857.191 323.016)">
          <path id="Path_3" data-name="Path 3" d="M957.318,581.54H782.2a17.686,17.686,0,0,1-17.7-17.7V131a17.686,17.686,0,0,1,17.7-17.7H957.318a17.686,17.686,0,0,1,17.7,17.7V563.891A17.674,17.674,0,0,1,957.318,581.54Z" transform="translate(-764.5 -113.3)" fill="url(#linear-gradient)"/>
        </g>
        <g id="Group_4" data-name="Group 4" transform="translate(-797.16 316.634)">
          <path id="Path_4" data-name="Path 4" d="M963.516,104l-1.217,5.145-.609,2.545c0,7.082-7.3,12.836-16.266,12.836H891.092c-9.019,0-16.266-5.754-16.266-12.836l-.609-2.545L873,104Z" transform="translate(-873 -104)"/>
        </g>
        <rect id="Rectangle_1" data-name="Rectangle 1" width="33.584" height="7.691" transform="translate(-839.098 326.87)" fill="none"/>
        <g id="_x31_" transform="translate(-762.027 320.839)">
          <g id="Group_5" data-name="Group 5">
            <circle id="Ellipse_1" data-name="Ellipse 1" cx="4.758" cy="4.758" r="4.758" fill="url(#linear-gradient-2)"/>
            <path id="Path_5" data-name="Path 5" d="M945.028,119.456a4.553,4.553,0,0,1-6.363.664,4.5,4.5,0,0,1-.609-6.363,4.5,4.5,0,1,1,6.971,5.7Z" transform="translate(-936.729 -111.821)" fill="url(#linear-gradient-3)"/>
            <ellipse id="Ellipse_2" data-name="Ellipse 2" cx="3.652" cy="3.873" rx="3.652" ry="3.873" transform="matrix(0.999, -0.051, 0.051, 0.999, 0.852, 1.076)" fill="#1b1464"/>
            <path id="Path_6" data-name="Path 6" d="M944.592,114.36c.443.885-.221,2.158-1.494,2.822-1.328.664-2.711.5-3.209-.387-.443-.885.221-2.158,1.494-2.822S944.094,113.474,944.592,114.36Z" transform="translate(-937.953 -112.479)" fill="url(#linear-gradient-4)"/>
            <circle id="Ellipse_3" data-name="Ellipse 3" cx="2.766" cy="2.766" r="2.766" transform="translate(15.381 1.992)" fill="url(#linear-gradient-5)"/>
            <path id="Path_7" data-name="Path 7" d="M969.258,119.771a2.674,2.674,0,1,1-.387-3.762A2.755,2.755,0,0,1,969.258,119.771Z" transform="translate(-949.008 -113.298)" fill="url(#linear-gradient-6)"/>
            <ellipse id="Ellipse_4" data-name="Ellipse 4" cx="2.158" cy="2.268" rx="2.158" ry="2.268" transform="matrix(0.999, -0.051, 0.051, 0.999, 15.813, 2.604)" fill="#1b1464"/>
            <path id="Path_8" data-name="Path 8" d="M968.994,116.8c.277.5-.111,1.273-.885,1.66s-1.6.277-1.881-.221.111-1.273.885-1.66C967.888,116.137,968.718,116.248,968.994,116.8Z" transform="translate(-949.74 -113.702)" fill="url(#linear-gradient-7)"/>
          </g>
        </g>
        <g id="_x32_" transform="translate(-702.348 326.87)">
          <g id="Group_6" data-name="Group 6" transform="translate(0 0)">
            <path id="Path_9" data-name="Path 9" d="M1053.578,123.9a.932.932,0,0,1,.885,1.383l-.111.166-3.873,6.141a1.087,1.087,0,0,1-1.771,0l-3.818-6.252a.932.932,0,0,1,.885-1.383C1049.927,123.9,1052.306,123.9,1053.578,123.9Z" transform="translate(-1044.539 -123.125)" fill="#fff"/>
            <path id="Path_10" data-name="Path 10" d="M1054.453,124.381h0a1.047,1.047,0,0,1-.885.5h-8.188a.939.939,0,0,1-.885-.5h0A.939.939,0,0,1,1045.1,123a19.99,19.99,0,0,1,4.592-.5,17.013,17.013,0,0,1,4.15.5A.89.89,0,0,1,1054.453,124.381Z" transform="translate(-1044.363 -122.5)" fill="#afaaaa"/>
          </g>
          <g id="Group_7" data-name="Group 7" transform="translate(30.783 0)">
            <rect id="Rectangle_2" data-name="Rectangle 2" width="4.98" height="8.299" transform="translate(0 1.107)" fill="#afaaaa"/>
            <rect id="Rectangle_3" data-name="Rectangle 3" width="2.213" height="1.107" transform="translate(1.383)" fill="#afaaaa"/>
            <rect id="Rectangle_4" data-name="Rectangle 4" width="4.98" height="5.809" transform="translate(0 3.596)" fill="#fff"/>
          </g>
          <path id="Path_11" data-name="Path 11" d="M1079.506,133.242H1067.5l12.006-8.742" transform="translate(-1054.698 -123.393)" fill="#fff"/>
        </g>
        <g id="_x33_" transform="translate(-843.746 764.399)">
          <g id="Group_8" data-name="Group 8" transform="translate(164.047 4.319)">
            <path id="Path_12" data-name="Path 12" d="M1099.243,937.025h-10.955a2.975,2.975,0,0,1-2.988-2.988v-6.75a2.975,2.975,0,0,1,2.988-2.988h10.955a2.975,2.975,0,0,1,2.988,2.988v6.75A3.048,3.048,0,0,1,1099.243,937.025Z" transform="translate(-1085.3 -922.529)" fill="#fff" stroke="#09f" stroke-width="1"/>
            <path id="Path_13" data-name="Path 13" d="M1100.242,925.028h-7.469a1.252,1.252,0,0,1-1.272-1.272v-1.383a1.252,1.252,0,0,1,1.272-1.273h7.469a1.252,1.252,0,0,1,1.273,1.273v1.383A1.252,1.252,0,0,1,1100.242,925.028Z" transform="translate(-1088.07 -921.1)" fill="#fff" stroke="#09f" stroke-width="1"/>
            <ellipse id="Ellipse_5" data-name="Ellipse 5" cx="2.49" cy="2.268" rx="2.49" ry="2.268" transform="translate(6.031 6.031)" fill="#fff" stroke="#09f" stroke-miterlimit="10" stroke-width="2"/>
          </g>
          <g id="Group_9" data-name="Group 9" transform="translate(84.32)">
            <path id="Path_14" data-name="Path 14" d="M953.483,935.176H943.136a1.96,1.96,0,0,1-1.936-1.936v-7.3A1.96,1.96,0,0,1,943.136,924h10.346a1.96,1.96,0,0,1,1.937,1.937v7.3A1.96,1.96,0,0,1,953.483,935.176Z" transform="translate(-941.2 -918.076)" fill="none" stroke="#fff" stroke-miterlimit="10" stroke-width="2"/>
            <circle id="Ellipse_6" data-name="Ellipse 6" cx="1.494" cy="1.494" r="1.494" transform="translate(5.754 10.184)" fill="#fff" stroke="#fff" stroke-miterlimit="10" stroke-width="2"/>
            <path id="Path_15" data-name="Path 15" d="M947.4,914.4a4.586,4.586,0,0,1,5.367-.443,4.5,4.5,0,0,1,1.936,5.256" transform="translate(-943.97 -913.293)" fill="none" stroke="#fff" stroke-linecap="round" stroke-miterlimit="10" stroke-width="2"/>
          </g>
          <g id="Group_10" data-name="Group 10" transform="translate(0 0.502)">
            <path id="Path_16" data-name="Path 16" d="M788.8,927.2c.553.885,2.877,4.26,6.418,4.26s5.865-3.375,6.418-4.26" transform="translate(-788.8 -920.007)" fill="none" stroke="#fff" stroke-miterlimit="10" stroke-width="2"/>
            <line id="Line_4" data-name="Line 4" y2="7.691" transform="translate(6.363 11.453)" fill="none" stroke="#fff" stroke-miterlimit="10" stroke-width="2"/>
            <path id="Path_17" data-name="Path 17" d="M799.524,923.606h-1.217A1.11,1.11,0,0,1,797.2,922.5v-7.193a1.11,1.11,0,0,1,1.107-1.107h1.217a1.11,1.11,0,0,1,1.107,1.107V922.5A1.11,1.11,0,0,1,799.524,923.606Z" transform="translate(-792.552 -914.2)" fill="#fff" stroke="#fff" stroke-miterlimit="10" stroke-width="2"/>
          </g>
        </g>
      </g>
    </g>
    <text id="Welcome" transform="translate(-715 163)" fill="#fff" font-size="20" font-family="SegoeUI, Segoe UI"><tspan x="0" y="0">Welcome</tspan></text>
  </g>
</svg>
